<?xml version="1.0" encoding="utf-8"?>
<!-- Generator: Adobe Illustrator 28.1.0, SVG Export Plug-In . SVG Version: 6.00 Build 0)  -->
<svg version="1.1" id="Layer_1" xmlns="http://www.w3.org/2000/svg" xmlns:xlink="http://www.w3.org/1999/xlink" x="0px" y="0px"
	 viewBox="0 0 256 256" style="enable-background:new 0 0 256 256;" xml:space="preserve">
<style type="text/css">
	.st0{fill-rule:evenodd;clip-rule:evenodd;fill:#DB3B2B;}
	.st1{fill-rule:evenodd;clip-rule:evenodd;fill:#0A0A08;}
	.st2{fill-rule:evenodd;clip-rule:evenodd;fill:#415E9B;}
	.st3{fill-rule:evenodd;clip-rule:evenodd;fill:#FFFFFF;}
	.st4{enable-background:new    ;}
	.st5{font-family:'Lato-Bold';}
	.st6{font-size:24px;}
</style>
<g id="Page-1">
	<g id="icon">
		<g id="Group" transform="translate(7.000000, 60.000000)">
			<g id="NPR_Logo">
				<polygon id="Fill-1" class="st0" points="0.2,81 80.4,81 80.4,0.6 0.2,0.6 				"/>
				<polygon id="Fill-3" class="st1" points="80.4,81 160.9,81 160.9,0.6 80.4,0.6 				"/>
				<polygon id="Fill-4" class="st2" points="160.9,81 241.3,81 241.3,0.6 160.9,0.6 				"/>
				<path id="Fill-5" class="st3" d="M48,61.3V37.6c0-3.5-0.7-6.1-2-7.7s-3.6-2.4-6.6-2.4c-1.4,0-2.9,0.4-4.5,1.2s-2.9,1.8-3.8,3
					v29.7h-9.6V20.1h6.9l1.8,3.8c2.6-3,6.5-4.5,11.6-4.5c4.9,0,8.8,1.5,11.6,4.4c2.8,2.9,4.3,7,4.3,12.3v25.2H48"/>
				<path id="Fill-6" class="st3" d="M119.9,62.1c6.3,0,11.3-1.8,14.9-5.5c3.6-3.6,5.5-8.8,5.5-15.6c0-14.5-6.6-21.7-19.7-21.7
					c-3.5,0-6.5,1.1-8.9,3.5v-2.8H102v57.3h9.6V60.3C114.1,61.5,116.9,62.1,119.9,62.1L119.9,62.1z M117.7,27.6c4.4,0,7.6,1,9.5,3
					c1.9,2,2.9,5.4,2.9,10.3c0,4.6-1,7.9-2.9,10c-1.9,2.1-5.1,3.2-9.5,3.2c-2.3,0-4.4-0.7-6.1-2.1V30.3
					C113.4,28.5,115.4,27.6,117.7,27.6L117.7,27.6z"/>
				<path id="Fill-7" class="st3" d="M211.7,29.1c-1.7-1.1-3.6-1.6-5.6-1.6c-2.2,0-4.2,1-5.9,3c-1.7,2-2.6,4.5-2.6,7.4v23.4H188
					V20.1h9.6V24c2.7-3.1,6.2-4.6,10.7-4.6c3.3,0,5.8,0.5,7.5,1.5L211.7,29.1"/>
			</g>
			<text transform="matrix(1 0 0 1 9.629 127.9805)" class="st4"><tspan x="0" y="0" class="st5 st6">Content Distribution</tspan><tspan x="72" y="28.8" class="st5 st6">Service</tspan></text>
		</g>
	</g>
</g>
</svg>
